<svg xmlns="http://www.w3.org/2000/svg" fill="none" viewBox="0 2.25 72.45 72.49">
<path d="M72.454 38.5001C72.454 42.3762 72.1426 46.1766 71.5477 49.8825C69.5784 62.1505 59.8654 71.8683 47.6035 73.8386C43.8996 74.4338 40.1007 74.7454 36.227 74.7454C32.3534 74.7454 28.5547 74.4338 24.8506 73.8386C12.5887 71.8683 2.87579 62.1505 0.906382 49.8825C0.311464 46.1768 0 42.3762 0 38.5001C0 34.6243 0.311464 30.8237 0.906382 27.1179C2.87579 14.8498 12.5887 5.13211 24.8506 3.16173C28.5547 2.56649 32.3534 2.25488 36.227 2.25488C40.1007 2.25488 43.8996 2.56649 47.6035 3.16173C59.8654 5.13211 69.5784 14.8498 71.5477 27.1179C72.1426 30.8235 72.454 34.6243 72.454 38.5001Z" fill="#0B5CFF"/>
<path d="M72.454 38.5001C72.454 42.3762 72.1426 46.1766 71.5477 49.8825C69.5784 62.1505 59.8654 71.8683 47.6035 73.8386C43.8996 74.4338 40.1007 74.7454 36.227 74.7454C32.3534 74.7454 28.5547 74.4338 24.8506 73.8386C12.5887 71.8683 2.87579 62.1505 0.906382 49.8825C0.311464 46.1768 0 42.3762 0 38.5001C0 34.6243 0.311464 30.8237 0.906382 27.1179C2.87579 14.8498 12.5887 5.13211 24.8506 3.16173C28.5547 2.56649 32.3534 2.25488 36.227 2.25488C40.1007 2.25488 43.8996 2.56649 47.6035 3.16173C59.8654 5.13211 69.5784 14.8498 71.5477 27.1179C72.1426 30.8235 72.454 34.6243 72.454 38.5001Z" fill="url(#paint0_radial_380_1885)"/>
<path d="M72.4538 38.5001C72.4538 42.3759 72.1423 46.1766 71.5474 49.8823C69.5779 62.1505 59.8652 71.8683 47.6032 73.8386C43.8993 74.4338 40.1006 74.7454 36.227 74.7454C32.3531 74.7454 28.5544 74.4338 24.8505 73.8386C12.5885 71.8683 2.87567 62.1505 0.906254 49.8823C0.311335 46.1766 0 42.3759 0 38.5001C0 34.6243 0.311335 30.8235 0.906254 27.1177C2.87578 14.8498 12.5886 5.13186 24.8505 3.16159C28.5546 2.56638 32.3531 2.25488 36.227 2.25488C40.1008 2.25488 43.8993 2.56638 47.6032 3.16159C59.8652 5.13186 69.5781 14.8498 71.5474 27.1177C72.1423 30.8235 72.4538 34.6241 72.4538 38.5001Z" fill="url(#paint1_radial_380_1885)"/>
<mask id="mask0_380_1885" style="mask-type:luminance" maskUnits="userSpaceOnUse" x="12" y="15" width="48" height="47">
<path d="M59.5159 15.1992H12.9382V61.8003H59.5159V15.1992Z" fill="white"/>
</mask>
<g mask="url(#mask0_380_1885)">
<path d="M43.9899 47.5606C43.9899 49.7053 42.2522 51.4441 40.1086 51.4441H23.2889C19.0014 51.4441 15.5259 47.9669 15.5259 43.6773V29.438C15.5259 27.2935 17.2637 25.5547 19.4074 25.5547H36.227C40.5144 25.5547 43.9899 29.0319 43.9899 33.3215V47.5606ZM53.8231 27.8844L48.1302 32.1563C47.1528 32.8896 46.5776 34.0408 46.5776 35.263L46.5778 41.7353C46.5778 42.9578 47.153 44.1087 48.1302 44.8421L53.8231 49.1137C55.1024 50.074 56.9282 49.1606 56.9282 47.5604V29.4378C56.9282 27.8377 55.1024 26.9244 53.8231 27.8844Z" fill="white"/>
</g>
<defs>
<radialGradient id="paint0_radial_380_1885" cx="0" cy="0" r="1" gradientUnits="userSpaceOnUse" gradientTransform="translate(36.227 34.2882) scale(48.8435 40.8431)">
<stop offset="0.82" stop-color="#0B5CFF" stop-opacity="0"/>
<stop offset="0.98" stop-color="#003CB3"/>
</radialGradient>
<radialGradient id="paint1_radial_380_1885" cx="0" cy="0" r="1" gradientUnits="userSpaceOnUse" gradientTransform="translate(36.227 42.6971) scale(48.826 40.8283)">
<stop offset="0.8" stop-color="#0B5CFF" stop-opacity="0"/>
<stop offset="1" stop-color="#71A5F1"/>
</radialGradient>
</defs>
</svg>